<?xml version="1.0" encoding="UTF-8" standalone="no"?>
<!DOCTYPE svg PUBLIC "-//W3C//DTD SVG 1.1//EN"
 "http://www.w3.org/Graphics/SVG/1.1/DTD/svg11.dtd">
<!-- Generated by graphviz version 2.38.0 (20140413.2041)
 -->
<!-- Title: imdf_net_1573745475.7219892 Pages: 1 -->
<svg width="2150pt" height="184pt"
 viewBox="0.00 0.00 2150.00 184.00" xmlns="http://www.w3.org/2000/svg" xmlns:xlink="http://www.w3.org/1999/xlink">
<g id="graph0" class="graph" transform="scale(1 1) rotate(0) translate(4 180)">
<title>imdf_net_1573745475.7219892</title>
<!-- &#45;5188427140578398335 -->
<g id="node1" class="node"><title>&#45;5188427140578398335</title>
<polygon fill="black" stroke="black" points="394,-133 340,-133 340,-97 394,-97 394,-133"/>
</g>
<!-- 8201917455202821496 -->
<g id="node19" class="node"><title>8201917455202821496</title>
<ellipse fill="none" stroke="black" cx="458" cy="-115" rx="27" ry="27"/>
</g>
<!-- &#45;5188427140578398335&#45;&gt;8201917455202821496 -->
<g id="edge21" class="edge"><title>&#45;5188427140578398335&#45;&gt;8201917455202821496</title>
<path fill="none" stroke="black" d="M394.222,-115C402.551,-115 411.914,-115 420.816,-115"/>
<polygon fill="black" stroke="black" points="420.966,-118.5 430.966,-115 420.966,-111.5 420.966,-118.5"/>
</g>
<!-- &#45;2302114587641788352 -->
<g id="node2" class="node"><title>&#45;2302114587641788352</title>
<polygon fill="#9b9bff" stroke="black" points="1377,-45 1274,-45 1274,-9 1377,-9 1377,-45"/>
<text text-anchor="middle" x="1325.5" y="-23.3" font-family="Times New Roman,serif" font-size="14.00">check ticket (4)</text>
</g>
<!-- &#45;7095937276019890358 -->
<g id="node27" class="node"><title>&#45;7095937276019890358</title>
<ellipse fill="none" stroke="black" cx="1454" cy="-27" rx="27" ry="27"/>
</g>
<!-- &#45;2302114587641788352&#45;&gt;&#45;7095937276019890358 -->
<g id="edge22" class="edge"><title>&#45;2302114587641788352&#45;&gt;&#45;7095937276019890358</title>
<path fill="none" stroke="black" d="M1377.22,-27C1390.41,-27 1404.35,-27 1416.63,-27"/>
<polygon fill="black" stroke="black" points="1416.93,-30.5001 1426.93,-27 1416.93,-23.5001 1416.93,-30.5001"/>
</g>
<!-- 6060923274530514286 -->
<g id="node3" class="node"><title>6060923274530514286</title>
<polygon fill="black" stroke="black" points="618,-133 564,-133 564,-97 618,-97 618,-133"/>
</g>
<!-- &#45;3605975436596737688 -->
<g id="node15" class="node"><title>&#45;3605975436596737688</title>
<ellipse fill="none" stroke="black" cx="724" cy="-64" rx="27" ry="27"/>
</g>
<!-- 6060923274530514286&#45;&gt;&#45;3605975436596737688 -->
<g id="edge14" class="edge"><title>6060923274530514286&#45;&gt;&#45;3605975436596737688</title>
<path fill="none" stroke="black" d="M618.337,-105.212C635.626,-98.7362 658.711,-89.9965 679,-82 682.427,-80.6495 685.995,-79.2229 689.553,-77.7877"/>
<polygon fill="black" stroke="black" points="690.891,-81.0221 698.838,-74.0152 688.256,-74.5369 690.891,-81.0221"/>
</g>
<!-- 2084211528091642707 -->
<g id="node4" class="node"><title>2084211528091642707</title>
<polygon fill="black" stroke="black" points="1775.5,-56 1721.5,-56 1721.5,-20 1775.5,-20 1775.5,-56"/>
</g>
<!-- 9050415593499671097 -->
<g id="node17" class="node"><title>9050415593499671097</title>
<ellipse fill="none" stroke="black" cx="1849" cy="-34" rx="27" ry="27"/>
</g>
<!-- 2084211528091642707&#45;&gt;9050415593499671097 -->
<g id="edge16" class="edge"><title>2084211528091642707&#45;&gt;9050415593499671097</title>
<path fill="none" stroke="black" d="M1775.64,-36.9386C1786.66,-36.491 1799.68,-35.9624 1811.61,-35.4778"/>
<polygon fill="black" stroke="black" points="1811.89,-38.9694 1821.74,-35.0664 1811.61,-31.9751 1811.89,-38.9694"/>
</g>
<!-- 2344929183111510725 -->
<g id="node5" class="node"><title>2344929183111510725</title>
<polygon fill="black" stroke="black" points="893.5,-64 839.5,-64 839.5,-28 893.5,-28 893.5,-64"/>
</g>
<!-- &#45;2689969570627840944 -->
<g id="node23" class="node"><title>&#45;2689969570627840944</title>
<ellipse fill="none" stroke="black" cx="1003" cy="-74" rx="27" ry="27"/>
</g>
<!-- 2344929183111510725&#45;&gt;&#45;2689969570627840944 -->
<g id="edge9" class="edge"><title>2344929183111510725&#45;&gt;&#45;2689969570627840944</title>
<path fill="none" stroke="black" d="M893.752,-51.4652C914.437,-55.7712 943.488,-61.8191 966.288,-66.5655"/>
<polygon fill="black" stroke="black" points="965.767,-70.0321 976.271,-68.6438 967.194,-63.179 965.767,-70.0321"/>
</g>
<!-- 3869308240055401064 -->
<g id="node6" class="node"><title>3869308240055401064</title>
<polygon fill="#bcbcff" stroke="black" points="2051,-52 1913,-52 1913,-16 2051,-16 2051,-52"/>
<text text-anchor="middle" x="1982" y="-30.3" font-family="Times New Roman,serif" font-size="14.00">pay compensation (3)</text>
</g>
<!-- 6229683933273630511 -->
<g id="node18" class="node"><title>6229683933273630511</title>
<ellipse fill="orange" stroke="black" cx="2115" cy="-34" rx="27" ry="27"/>
</g>
<!-- 3869308240055401064&#45;&gt;6229683933273630511 -->
<g id="edge20" class="edge"><title>3869308240055401064&#45;&gt;6229683933273630511</title>
<path fill="none" stroke="black" d="M2051.19,-34C2060.37,-34 2069.47,-34 2077.79,-34"/>
<polygon fill="black" stroke="black" points="2077.85,-37.5001 2087.85,-34 2077.85,-30.5001 2077.85,-37.5001"/>
</g>
<!-- &#45;3726610734704785652 -->
<g id="node7" class="node"><title>&#45;3726610734704785652</title>
<polygon fill="#bcbcff" stroke="black" points="1390,-117 1261,-117 1261,-81 1390,-81 1390,-117"/>
<text text-anchor="middle" x="1325.5" y="-95.3" font-family="Times New Roman,serif" font-size="14.00">examine casually (3)</text>
</g>
<!-- 8829823108814322652 -->
<g id="node25" class="node"><title>8829823108814322652</title>
<ellipse fill="none" stroke="black" cx="1454" cy="-99" rx="27" ry="27"/>
</g>
<!-- &#45;3726610734704785652&#45;&gt;8829823108814322652 -->
<g id="edge7" class="edge"><title>&#45;3726610734704785652&#45;&gt;8829823108814322652</title>
<path fill="none" stroke="black" d="M1390.12,-99C1399.29,-99 1408.45,-99 1416.83,-99"/>
<polygon fill="black" stroke="black" points="1416.97,-102.5 1426.97,-99 1416.97,-95.5001 1416.97,-102.5"/>
</g>
<!-- &#45;4342671285472270790 -->
<g id="node8" class="node"><title>&#45;4342671285472270790</title>
<polygon fill="black" stroke="black" points="2009,-165 1955,-165 1955,-129 2009,-129 2009,-165"/>
</g>
<!-- &#45;4342671285472270790&#45;&gt;8201917455202821496 -->
<g id="edge18" class="edge"><title>&#45;4342671285472270790&#45;&gt;8201917455202821496</title>
<path fill="none" stroke="black" d="M1954.99,-151.43C1928.62,-155.531 1886.6,-161 1850,-161 590,-161 590,-161 590,-161 554.578,-161 516.656,-145.842 490.777,-132.929"/>
<polygon fill="black" stroke="black" points="492.306,-129.779 481.814,-128.305 489.096,-136 492.306,-129.779"/>
<text text-anchor="middle" x="1239.5" y="-164.8" font-family="Times New Roman,serif" font-size="14.00">1</text>
</g>
<!-- &#45;3394851124418474282 -->
<g id="node9" class="node"><title>&#45;3394851124418474282</title>
<polygon fill="#ffffff" stroke="black" points="654,-79 528,-79 528,-43 654,-43 654,-79"/>
<text text-anchor="middle" x="591" y="-57.3" font-family="Times New Roman,serif" font-size="14.00">reinitiate request (1)</text>
</g>
<!-- &#45;3394851124418474282&#45;&gt;&#45;3605975436596737688 -->
<g id="edge25" class="edge"><title>&#45;3394851124418474282&#45;&gt;&#45;3605975436596737688</title>
<path fill="none" stroke="black" d="M654.047,-62.4209C665.238,-62.6772 676.564,-62.9366 686.712,-63.169"/>
<polygon fill="black" stroke="black" points="686.73,-66.6702 696.807,-63.4002 686.89,-59.672 686.73,-66.6702"/>
<text text-anchor="middle" x="675.5" y="-66.8" font-family="Times New Roman,serif" font-size="14.00">1</text>
</g>
<!-- &#45;6051483608127562281 -->
<g id="node10" class="node"><title>&#45;6051483608127562281</title>
<polygon fill="#bcbcff" stroke="black" points="212,-133 91,-133 91,-97 212,-97 212,-133"/>
<text text-anchor="middle" x="151.5" y="-111.3" font-family="Times New Roman,serif" font-size="14.00">register request (3)</text>
</g>
<!-- 8967333878255638014 -->
<g id="node16" class="node"><title>8967333878255638014</title>
<ellipse fill="none" stroke="black" cx="276" cy="-115" rx="27" ry="27"/>
</g>
<!-- &#45;6051483608127562281&#45;&gt;8967333878255638014 -->
<g id="edge30" class="edge"><title>&#45;6051483608127562281&#45;&gt;8967333878255638014</title>
<path fill="none" stroke="black" d="M212.315,-115C221.368,-115 230.463,-115 238.808,-115"/>
<polygon fill="black" stroke="black" points="238.918,-118.5 248.918,-115 238.918,-111.5 238.918,-118.5"/>
</g>
<!-- 3372069054254209963 -->
<g id="node11" class="node"><title>3372069054254209963</title>
<polygon fill="#ffffff" stroke="black" points="939,-118 794,-118 794,-82 939,-82 939,-118"/>
<text text-anchor="middle" x="866.5" y="-96.3" font-family="Times New Roman,serif" font-size="14.00">examine thoroughly (1)</text>
</g>
<!-- 3372069054254209963&#45;&gt;&#45;2689969570627840944 -->
<g id="edge11" class="edge"><title>3372069054254209963&#45;&gt;&#45;2689969570627840944</title>
<path fill="none" stroke="black" d="M939.082,-86.1626C948.537,-84.3348 957.878,-82.5291 966.352,-80.891"/>
<polygon fill="black" stroke="black" points="967.055,-84.3201 976.209,-78.9857 965.726,-77.4473 967.055,-84.3201"/>
</g>
<!-- &#45;7253192944423373978 -->
<g id="node12" class="node"><title>&#45;7253192944423373978</title>
<polygon fill="#9b9bff" stroke="black" points="1785,-115 1712,-115 1712,-79 1785,-79 1785,-115"/>
<text text-anchor="middle" x="1748.5" y="-93.3" font-family="Times New Roman,serif" font-size="14.00">decide (4)</text>
</g>
<!-- &#45;9149163357373873346 -->
<g id="node26" class="node"><title>&#45;9149163357373873346</title>
<ellipse fill="none" stroke="black" cx="1849" cy="-106" rx="27" ry="27"/>
</g>
<!-- &#45;7253192944423373978&#45;&gt;&#45;9149163357373873346 -->
<g id="edge13" class="edge"><title>&#45;7253192944423373978&#45;&gt;&#45;9149163357373873346</title>
<path fill="none" stroke="black" d="M1785.06,-100.249C1793.85,-101.053 1803.28,-101.914 1812.09,-102.719"/>
<polygon fill="black" stroke="black" points="1811.79,-106.206 1822.07,-103.631 1812.43,-99.2355 1811.79,-106.206"/>
</g>
<!-- &#45;2947347473581949051 -->
<g id="node13" class="node"><title>&#45;2947347473581949051</title>
<polygon fill="black" stroke="black" points="1121,-92 1067,-92 1067,-56 1121,-56 1121,-92"/>
</g>
<!-- 7928039518220645243 -->
<g id="node22" class="node"><title>7928039518220645243</title>
<ellipse fill="none" stroke="black" cx="1191" cy="-27" rx="27" ry="27"/>
</g>
<!-- &#45;2947347473581949051&#45;&gt;7928039518220645243 -->
<g id="edge1" class="edge"><title>&#45;2947347473581949051&#45;&gt;7928039518220645243</title>
<path fill="none" stroke="black" d="M1121.21,-61.0326C1132.39,-55.5011 1145.56,-48.988 1157.36,-43.1484"/>
<polygon fill="black" stroke="black" points="1159.06,-46.2126 1166.47,-38.6411 1155.96,-39.9384 1159.06,-46.2126"/>
<text text-anchor="middle" x="1142.5" y="-55.8" font-family="Times New Roman,serif" font-size="14.00">1</text>
</g>
<!-- 9063175404705137955 -->
<g id="node24" class="node"><title>9063175404705137955</title>
<ellipse fill="none" stroke="black" cx="1191" cy="-99" rx="27" ry="27"/>
</g>
<!-- &#45;2947347473581949051&#45;&gt;9063175404705137955 -->
<g id="edge8" class="edge"><title>&#45;2947347473581949051&#45;&gt;9063175404705137955</title>
<path fill="none" stroke="black" d="M1121.21,-80.8975C1131.55,-83.6196 1143.6,-86.7887 1154.69,-89.7075"/>
<polygon fill="black" stroke="black" points="1153.97,-93.1374 1164.53,-92.2976 1155.75,-86.3679 1153.97,-93.1374"/>
</g>
<!-- &#45;1894624387274768534 -->
<g id="node14" class="node"><title>&#45;1894624387274768534</title>
<polygon fill="black" stroke="black" points="1572,-82 1518,-82 1518,-46 1572,-46 1572,-82"/>
</g>
<!-- 2257576379530343704 -->
<g id="node20" class="node"><title>2257576379530343704</title>
<ellipse fill="none" stroke="black" cx="1642" cy="-64" rx="27" ry="27"/>
</g>
<!-- &#45;1894624387274768534&#45;&gt;2257576379530343704 -->
<g id="edge28" class="edge"><title>&#45;1894624387274768534&#45;&gt;2257576379530343704</title>
<path fill="none" stroke="black" stroke-width="2.59999" d="M1572.21,-64C1582.28,-64 1593.96,-64 1604.81,-64"/>
<polygon fill="black" stroke="black" stroke-width="2.59999" points="1604.87,-67.5001 1614.87,-64 1604.87,-60.5001 1604.87,-67.5001"/>
<text text-anchor="middle" x="1593.5" y="-67.8" font-family="Times New Roman,serif" font-size="14.00">4</text>
</g>
<!-- &#45;3605975436596737688&#45;&gt;2344929183111510725 -->
<g id="edge23" class="edge"><title>&#45;3605975436596737688&#45;&gt;2344929183111510725</title>
<path fill="none" stroke="black" d="M751.098,-60.6565C773.04,-57.8454 804.648,-53.796 829.082,-50.6657"/>
<polygon fill="black" stroke="black" points="829.591,-54.1291 839.065,-49.3867 828.702,-47.1859 829.591,-54.1291"/>
</g>
<!-- &#45;3605975436596737688&#45;&gt;3372069054254209963 -->
<g id="edge4" class="edge"><title>&#45;3605975436596737688&#45;&gt;3372069054254209963</title>
<path fill="none" stroke="black" d="M750.443,-70.5193C760.526,-73.1028 772.722,-76.2277 785.353,-79.4642"/>
<polygon fill="black" stroke="black" points="784.514,-82.8622 795.07,-81.9539 786.252,-76.0812 784.514,-82.8622"/>
<text text-anchor="middle" x="772.5" y="-80.8" font-family="Times New Roman,serif" font-size="14.00">1</text>
</g>
<!-- 8967333878255638014&#45;&gt;&#45;5188427140578398335 -->
<g id="edge26" class="edge"><title>8967333878255638014&#45;&gt;&#45;5188427140578398335</title>
<path fill="none" stroke="black" d="M303.222,-115C311.551,-115 320.914,-115 329.816,-115"/>
<polygon fill="black" stroke="black" points="329.966,-118.5 339.966,-115 329.966,-111.5 329.966,-118.5"/>
</g>
<!-- 9050415593499671097&#45;&gt;3869308240055401064 -->
<g id="edge19" class="edge"><title>9050415593499671097&#45;&gt;3869308240055401064</title>
<path fill="none" stroke="black" d="M1876.19,-34C1884.12,-34 1893.26,-34 1902.78,-34"/>
<polygon fill="black" stroke="black" points="1902.79,-37.5001 1912.79,-34 1902.79,-30.5001 1902.79,-37.5001"/>
</g>
<!-- 8201917455202821496&#45;&gt;6060923274530514286 -->
<g id="edge3" class="edge"><title>8201917455202821496&#45;&gt;6060923274530514286</title>
<path fill="none" stroke="black" d="M485.195,-115C504.83,-115 531.943,-115 553.672,-115"/>
<polygon fill="black" stroke="black" points="553.85,-118.5 563.85,-115 553.85,-111.5 553.85,-118.5"/>
</g>
<!-- 8201917455202821496&#45;&gt;&#45;3394851124418474282 -->
<g id="edge27" class="edge"><title>8201917455202821496&#45;&gt;&#45;3394851124418474282</title>
<path fill="none" stroke="black" d="M483.161,-104.437C489.594,-101.66 496.549,-98.6899 503,-96 513.239,-91.7304 524.191,-87.2541 534.752,-82.9835"/>
<polygon fill="black" stroke="black" points="536.342,-86.1162 544.308,-79.1312 533.725,-79.6239 536.342,-86.1162"/>
<text text-anchor="middle" x="506.5" y="-99.8" font-family="Times New Roman,serif" font-size="14.00">1</text>
</g>
<!-- 2257576379530343704&#45;&gt;2084211528091642707 -->
<g id="edge15" class="edge"><title>2257576379530343704&#45;&gt;2084211528091642707</title>
<path fill="none" stroke="black" d="M1668.3,-57.7061C1681.23,-54.4892 1697.19,-50.5179 1711.39,-46.9852"/>
<polygon fill="black" stroke="black" points="1712.49,-50.3184 1721.35,-44.5074 1710.8,-43.5255 1712.49,-50.3184"/>
</g>
<!-- 2257576379530343704&#45;&gt;&#45;7253192944423373978 -->
<g id="edge12" class="edge"><title>2257576379530343704&#45;&gt;&#45;7253192944423373978</title>
<path fill="none" stroke="black" stroke-width="2.59999" d="M1668.03,-71.9043C1678.22,-75.122 1690.33,-78.9448 1701.98,-82.6243"/>
<polygon fill="black" stroke="black" stroke-width="2.59999" points="1701.02,-85.9911 1711.61,-85.6649 1703.12,-79.316 1701.02,-85.9911"/>
<text text-anchor="middle" x="1690.5" y="-83.8" font-family="Times New Roman,serif" font-size="14.00">4</text>
</g>
<!-- 6843953022958341509 -->
<g id="node21" class="node"><title>6843953022958341509</title>
<ellipse fill="green" stroke="black" cx="27" cy="-115" rx="27" ry="27"/>
<text text-anchor="middle" x="27" y="-111.3" font-family="Times New Roman,serif" font-size="14.00">1</text>
</g>
<!-- 6843953022958341509&#45;&gt;&#45;6051483608127562281 -->
<g id="edge24" class="edge"><title>6843953022958341509&#45;&gt;&#45;6051483608127562281</title>
<path fill="none" stroke="black" d="M54.2793,-115C62.1784,-115 71.2444,-115 80.5848,-115"/>
<polygon fill="black" stroke="black" points="80.7857,-118.5 90.7856,-115 80.7856,-111.5 80.7857,-118.5"/>
</g>
<!-- 7928039518220645243&#45;&gt;&#45;2302114587641788352 -->
<g id="edge29" class="edge"><title>7928039518220645243&#45;&gt;&#45;2302114587641788352</title>
<path fill="none" stroke="black" d="M1218.18,-27C1231.23,-27 1247.61,-27 1263.57,-27"/>
<polygon fill="black" stroke="black" points="1263.97,-30.5001 1273.97,-27 1263.97,-23.5001 1263.97,-30.5001"/>
<text text-anchor="middle" x="1239.5" y="-30.8" font-family="Times New Roman,serif" font-size="14.00">1</text>
</g>
<!-- &#45;2689969570627840944&#45;&gt;&#45;2947347473581949051 -->
<g id="edge5" class="edge"><title>&#45;2689969570627840944&#45;&gt;&#45;2947347473581949051</title>
<path fill="none" stroke="black" d="M1030.22,-74C1038.55,-74 1047.91,-74 1056.82,-74"/>
<polygon fill="black" stroke="black" points="1056.97,-77.5001 1066.97,-74 1056.97,-70.5001 1056.97,-77.5001"/>
</g>
<!-- 9063175404705137955&#45;&gt;&#45;3726610734704785652 -->
<g id="edge6" class="edge"><title>9063175404705137955&#45;&gt;&#45;3726610734704785652</title>
<path fill="none" stroke="black" d="M1218.18,-99C1227.69,-99 1238.96,-99 1250.55,-99"/>
<polygon fill="black" stroke="black" points="1250.78,-102.5 1260.78,-99 1250.78,-95.5001 1250.78,-102.5"/>
</g>
<!-- 8829823108814322652&#45;&gt;&#45;1894624387274768534 -->
<g id="edge2" class="edge"><title>8829823108814322652&#45;&gt;&#45;1894624387274768534</title>
<path fill="none" stroke="black" d="M1479.32,-89.4361C1488.27,-85.9143 1498.61,-81.8486 1508.36,-78.0153"/>
<polygon fill="black" stroke="black" points="1509.81,-81.2053 1517.84,-74.2883 1507.25,-74.6909 1509.81,-81.2053"/>
</g>
<!-- &#45;9149163357373873346&#45;&gt;&#45;4342671285472270790 -->
<g id="edge17" class="edge"><title>&#45;9149163357373873346&#45;&gt;&#45;4342671285472270790</title>
<path fill="none" stroke="black" d="M1874.95,-113.808C1894.78,-120.014 1922.78,-128.778 1945.03,-135.742"/>
<polygon fill="black" stroke="black" points="1944.21,-139.153 1954.8,-138.799 1946.3,-132.472 1944.21,-139.153"/>
</g>
<!-- &#45;7095937276019890358&#45;&gt;&#45;1894624387274768534 -->
<g id="edge10" class="edge"><title>&#45;7095937276019890358&#45;&gt;&#45;1894624387274768534</title>
<path fill="none" stroke="black" d="M1479.32,-37.1104C1488.27,-40.8334 1498.61,-45.1315 1508.36,-49.1838"/>
<polygon fill="black" stroke="black" points="1507.26,-52.5168 1517.84,-53.1238 1509.95,-46.0532 1507.26,-52.5168"/>
</g>
</g>
</svg>
